<svg xmlns="http://www.w3.org/2000/svg" viewBox="0 0 512 512">
  <rect width="512" height="512" fill="#ffffff" />
  <!-- A beautiful modern heart/nest shape using rose colors -->
  <path d="M256 416C256 416 96 304 96 176C96 109.726 149.726 56 216 56C238.932 56 256 73.068 256 96C256 73.068 273.068 56 296 56C362.274 56 416 109.726 416 176C416 304 256 416 256 416Z" fill="url(#grad1)" />
  <path d="M256 384C256 384 128 288 128 192C128 138.981 170.981 96 224 96C242.062 96 256 109.938 256 128C256 109.938 269.938 96 288 96C341.019 96 384 138.981 384 192C384 288 256 384 256 384Z" fill="#e11d48" opacity="0.9"/>
  <circle cx="192" cy="144" r="16" fill="#ffffff" opacity="0.4"/>
  <circle cx="320" cy="144" r="10" fill="#ffffff" opacity="0.3"/>
  <defs>
    <linearGradient id="grad1" x1="0%" y1="0%" x2="100%" y2="100%">
      <stop offset="0%" style="stop-color:#fb7185;stop-opacity:1" />
      <stop offset="100%" style="stop-color:#be123c;stop-opacity:1" />
    </linearGradient>
  </defs>
</svg>
